<svg width="151" height="151" xmlns="http://www.w3.org/2000/svg" xmlns:xlink="http://www.w3.org/1999/xlink" xml:space="preserve" overflow="hidden"><g transform="translate(-63 -103)"><path d="M201.356 115.644C193.202 107.49 182.361 103 170.829 103 159.298 103 148.457 107.49 140.303 115.644L107.976 147.972C107.975 147.973 107.975 147.973 107.974 147.974L75.6442 180.303C67.4905 188.457 63 199.298 63 210.829 63 222.36 67.4905 233.202 75.6442 241.356 83.7982 249.51 94.6392 254 106.171 254 117.702 254 128.543 249.51 136.697 241.356L169.024 209.028C169.025 209.027 169.025 209.027 169.026 209.026L201.355 176.697C209.51 168.543 214 157.702 214 146.171 214 134.639 209.51 123.798 201.356 115.644ZM132.443 237.102C125.425 244.119 116.095 247.984 106.171 247.984 96.2465 247.984 86.9158 244.119 79.8984 237.102 72.8808 230.084 69.0158 220.754 69.0158 210.829 69.0158 200.905 72.8808 191.575 79.8984 184.557L110.101 154.355 162.645 206.899 132.443 237.102ZM197.102 172.443 166.899 202.645 114.355 150.101 144.557 119.898C151.575 112.881 160.905 109.016 170.829 109.016 180.753 109.016 190.084 112.881 197.102 119.898 204.119 126.916 207.984 136.246 207.984 146.171 207.984 156.095 204.119 165.425 197.102 172.443Z"/><path d="M85.8818 187.803C84.7068 186.628 82.8028 186.628 81.6279 187.803L80.4246 189.007C79.2499 190.181 79.2499 192.086 80.4246 193.261 81.0121 193.848 81.7815 194.141 82.5516 194.141 83.3216 194.141 84.091 193.848 84.6785 193.261L85.8818 192.057C87.0565 190.883 87.0565 188.978 85.8818 187.803Z"/><path d="M112.653 161.032C111.478 159.857 109.574 159.857 108.399 161.032L89.1478 180.283C87.9731 181.458 87.9731 183.363 89.1478 184.538 89.7353 185.125 90.5047 185.418 91.2747 185.418 92.0448 185.418 92.8142 185.125 93.4017 184.537L112.653 165.286C113.827 164.112 113.827 162.207 112.653 161.032Z"/></g></svg>