<svg width="151" height="151" xmlns="http://www.w3.org/2000/svg" xmlns:xlink="http://www.w3.org/1999/xlink" xml:space="preserve" overflow="hidden"><g transform="translate(-382 -123)"><path d="M520.356 135.644C512.202 127.49 501.361 123 489.829 123 478.298 123 467.457 127.49 459.303 135.644L426.976 167.972C426.975 167.973 426.975 167.973 426.974 167.974L394.644 200.303C386.49 208.457 382 219.298 382 230.829 382 242.36 386.49 253.202 394.644 261.356 402.798 269.51 413.639 274 425.171 274 436.702 274 447.543 269.51 455.697 261.356L488.024 229.028C488.025 229.027 488.025 229.027 488.026 229.026L520.355 196.697C528.51 188.543 533 177.702 533 166.171 533 154.639 528.51 143.798 520.356 135.644ZM451.443 257.102C444.425 264.119 435.095 267.984 425.171 267.984 415.247 267.984 405.916 264.119 398.898 257.102 391.881 250.084 388.016 240.754 388.016 230.829 388.016 220.905 391.881 211.575 398.898 204.557L429.101 174.355 481.645 226.899 451.443 257.102ZM516.102 192.443 485.899 222.645 433.355 170.101 463.557 139.898C470.575 132.881 479.905 129.016 489.829 129.016 499.753 129.016 509.084 132.881 516.102 139.898 523.119 146.916 526.984 156.246 526.984 166.171 526.984 176.095 523.119 185.425 516.102 192.443Z" fill="#FF0000"/><path d="M404.882 207.803C403.707 206.628 401.803 206.628 400.628 207.803L399.425 209.007C398.25 210.181 398.25 212.086 399.425 213.261 400.012 213.848 400.781 214.141 401.552 214.141 402.322 214.141 403.091 213.848 403.679 213.261L404.882 212.057C406.056 210.883 406.056 208.978 404.882 207.803Z" fill="#FF0000"/><path d="M431.653 181.032C430.478 179.857 428.574 179.857 427.399 181.032L408.148 200.283C406.973 201.458 406.973 203.363 408.148 204.538 408.735 205.125 409.505 205.418 410.275 205.418 411.045 205.418 411.814 205.125 412.402 204.537L431.653 185.286C432.827 184.112 432.827 182.207 431.653 181.032Z" fill="#FF0000"/></g></svg>