<svg width="151" height="151" xmlns="http://www.w3.org/2000/svg" xmlns:xlink="http://www.w3.org/1999/xlink" xml:space="preserve" overflow="hidden"><g transform="translate(-720 -103)"><path d="M858.356 115.644C850.202 107.49 839.361 103 827.829 103 816.298 103 805.457 107.49 797.303 115.644L764.976 147.972C764.975 147.973 764.975 147.973 764.974 147.974L732.644 180.303C724.49 188.457 720 199.298 720 210.829 720 222.36 724.49 233.202 732.644 241.356 740.798 249.51 751.639 254 763.171 254 774.702 254 785.543 249.51 793.697 241.356L826.024 209.028C826.025 209.027 826.025 209.027 826.026 209.026L858.355 176.697C866.51 168.543 871 157.702 871 146.171 871 134.639 866.51 123.798 858.356 115.644ZM789.443 237.102C782.425 244.119 773.095 247.984 763.171 247.984 753.247 247.984 743.916 244.119 736.898 237.102 729.881 230.084 726.016 220.754 726.016 210.829 726.016 200.905 729.881 191.575 736.898 184.557L767.101 154.355 819.645 206.899 789.443 237.102ZM854.102 172.443 823.899 202.645 771.355 150.101 801.557 119.898C808.575 112.881 817.905 109.016 827.829 109.016 837.753 109.016 847.084 112.881 854.102 119.898 861.119 126.916 864.984 136.246 864.984 146.171 864.984 156.095 861.119 165.425 854.102 172.443Z" fill="#70AD47"/><path d="M742.882 187.803C741.707 186.628 739.803 186.628 738.628 187.803L737.425 189.007C736.25 190.181 736.25 192.086 737.425 193.261 738.012 193.848 738.781 194.141 739.552 194.141 740.322 194.141 741.091 193.848 741.679 193.261L742.882 192.057C744.056 190.883 744.056 188.978 742.882 187.803Z" fill="#70AD47"/><path d="M769.653 161.032C768.478 159.857 766.574 159.857 765.399 161.032L746.148 180.283C744.973 181.458 744.973 183.363 746.148 184.538 746.735 185.125 747.505 185.418 748.275 185.418 749.045 185.418 749.814 185.125 750.402 184.537L769.653 165.286C770.827 164.112 770.827 162.207 769.653 161.032Z" fill="#70AD47"/></g></svg>